<svg width="131" height="28" viewBox="0 0 131 28" fill="none" xmlns="http://www.w3.org/2000/svg">
<path d="M40.7664 26.1968V8.54746H43.4505L43.7061 9.97209H43.8339C44.6008 8.99628 45.9041 8.29736 47.7186 8.29736C51.0396 8.29736 53.6986 10.9479 53.6986 14.8712C53.6986 18.7945 51.0419 21.4451 47.7186 21.4451C45.9292 21.4451 44.6784 20.7194 44.0143 19.8954H43.8864V26.1946H40.7686L40.7664 26.1968ZM50.5785 14.8734C50.5785 12.5735 49.0698 11.1243 47.2302 11.1243C45.3906 11.1243 43.8819 12.5735 43.8819 14.8734C43.8819 17.1734 45.3906 18.6226 47.2302 18.6226C49.0698 18.6226 50.5785 17.1734 50.5785 14.8734Z" fill="white"/>
<path d="M55.2803 14.8712C55.2803 11.0461 58.0899 8.29736 61.8468 8.29736C65.6037 8.29736 68.4134 11.0461 68.4134 14.8712C68.4134 18.6963 65.6037 21.4451 61.8468 21.4451C58.0899 21.4451 55.2803 18.6695 55.2803 14.8712ZM65.2705 14.8712C65.2705 12.6204 63.7367 11.1221 61.8468 11.1221C59.957 11.1221 58.3981 12.6226 58.3981 14.8712C58.3981 17.1198 59.957 18.5958 61.8468 18.5958C63.7367 18.5958 65.2705 17.122 65.2705 14.8712Z" fill="white"/>
<path d="M70.6731 21.1973V3.69751H73.7909V21.1973H70.6731Z" fill="white"/>
<path d="M85.365 8.54761H88.686L83.0644 23.9216C82.5029 25.4467 81.736 26.197 79.716 26.197H76.7009V23.3723H79.2573C79.7183 23.3723 79.9717 23.1467 80.1269 22.7716L80.4327 21.9476L75.1694 8.54761H78.4904L81.8387 17.3232H82.35L85.365 8.54761Z" fill="white"/>
<path d="M89.2816 21.8224H92.4497C92.5775 22.6464 93.4197 23.7718 95.4145 23.7718C97.2793 23.7718 98.5072 22.6218 98.5072 20.8712V19.096H98.3794C97.6901 19.8217 96.4119 20.4715 94.7754 20.4715C91.4545 20.4715 88.8982 17.9706 88.8982 14.371C88.8982 10.7715 91.4545 8.29736 94.7754 8.29736C96.4873 8.29736 97.7403 8.97172 98.5323 9.92296H98.6601L98.9158 8.54746H101.625V20.8712C101.625 24.2206 99.3243 26.4469 95.4145 26.4469C91.046 26.4469 89.3592 23.6468 89.2816 21.8224ZM98.5072 14.3733C98.5072 12.3993 97.0761 11.0238 95.2616 11.0238C93.4471 11.0238 92.0411 12.3993 92.0411 14.3733C92.0411 16.3472 93.4722 17.7473 95.2616 17.7473C97.051 17.7473 98.5072 16.3718 98.5072 14.3733Z" fill="white"/>
<path d="M103.791 14.8712C103.791 11.0461 106.601 8.29736 110.358 8.29736C114.114 8.29736 116.924 11.0461 116.924 14.8712C116.924 18.6963 114.114 21.4451 110.358 21.4451C106.601 21.4451 103.791 18.6695 103.791 14.8712ZM113.781 14.8712C113.781 12.6204 112.247 11.1221 110.358 11.1221C108.468 11.1221 106.909 12.6226 106.909 14.8712C106.909 17.1198 108.468 18.5958 110.358 18.5958C112.247 18.5958 113.781 17.122 113.781 14.8712Z" fill="white"/>
<path d="M119.095 21.1972V8.54746H121.777L122.032 9.74656H122.16C122.671 9.17269 123.95 8.29736 125.89 8.29736C128.854 8.29736 131 10.3964 131 13.5962V21.195H127.882V13.9959C127.882 12.3703 126.707 11.1958 125.098 11.1958C123.488 11.1958 122.21 12.4217 122.21 13.9959V21.195H119.093L119.095 21.1972Z" fill="white"/>
<path d="M23.9906 19.719L31.655 15.3893C32.0613 15.1593 32.3123 14.7328 32.3123 14.2751V5.61563C32.3123 5.15787 32.0613 4.73138 31.655 4.50138L23.9906 0.17166C23.5843 -0.0583352 23.0799 -0.0561023 22.6759 0.17166L15.0115 4.50138C14.6053 4.73138 14.3542 5.15787 14.3542 5.61563V21.0901L8.97907 24.1247L3.60395 21.0901V15.0187L8.97907 11.9841L12.5237 13.987V9.91409L9.63641 8.28179C9.43784 8.17014 9.2096 8.10985 8.97907 8.10985C8.74855 8.10985 8.5203 8.17014 8.32173 8.28179L0.657339 12.6115C0.251067 12.8415 0 13.268 0 13.7258V22.3852C0 22.843 0.251067 23.2695 0.657339 23.4995L8.32173 27.8292C8.72801 28.0569 9.23014 28.0569 9.63641 27.8292L17.3008 23.4995C17.7071 23.2695 17.9581 22.843 17.9581 22.3852V6.91075L18.054 6.85716L23.331 3.87615L28.7061 6.91075V12.9822L23.331 16.0168L19.7909 14.0183V18.0912L22.6736 19.719C23.0799 19.9468 23.5843 19.9468 23.9883 19.719H23.9906Z" fill="white"/>
</svg>
